<svg version="1" xmlns="http://www.w3.org/2000/svg" width="761.333" height="761.333" viewBox="0 0 571.000000 571.000000"><path d="M265.5.6C220 5.1 182.8 16.1 148.4 35.1 103 60.3 66 96.1 39.8 140.2 19.8 174.1 7.7 209.6 1.9 252c-1.8 12.5-1.8 54.5 0 67 8.1 59.4 30 109.2 66.7 151.9 46.4 54 107.2 87 179.9 97.7 16.8 2.5 57.2 2.5 74 0 46.2-6.8 85.4-21.6 122-46.1 16.3-11 26.4-19.3 42.1-35 45.6-45.4 72.3-99.1 82-165 2.5-16.8 2.5-57.2 0-74-5.4-37-16.5-70.8-32.7-100.1C503.3 89.8 453 45.1 392 20.7 358.5 7.3 328 1.2 291 .5c-11.8-.1-23.3-.1-25.5.1zM378 56.9c16.6 6 30.4 11.2 30.7 11.5.8.7.4 2-10 31.9l-7.6 21.8 31.5 26.9c17.4 14.9 31.9 26.8 32.2 26.6.4-.2 10-4.1 21.4-8.5 19.7-7.8 20.8-8.1 23.5-6.7 2.4 1.2 4.3 4.9 13 26.3 5.6 13.6 10.3 25.4 10.5 26.2.2.8-5.9 5.1-15.7 11.2-8.7 5.5-16.4 10.4-16.9 10.9-1 1-5.7 80.6-4.9 82.2.1.3 9.1 6.2 19.8 13l19.5 12.3v8.3c0 8.3 0 8.4-10.1 32.5-5.6 13.3-10.5 24.6-10.9 25-.4.5-12.4-1.6-26.6-4.7l-25.8-5.6-3 2.5c-1.7 1.3-13.4 12.5-26 24.8l-22.9 22.3 5.7 19.1 5.7 19.1-1.4 7.7c-.8 4.2-1.6 7.7-1.8 7.9-.2.1-10.4 4-22.6 8.5-14.4 5.3-24.6 8.4-28.9 9l-6.6.8-2-4.6c-1-2.5-5.1-12.3-9.1-21.6l-7.2-17h-77.8l-14 24.3-14 24.2h-8.3c-7.8 0-9.2-.4-26.6-7.1-15.3-5.9-25-10.6-32.5-15.7-1-.6.8-7.2 7.3-27.6l8.5-26.9-2.8-3.1c-1.6-1.7-12.1-12.8-23.3-24.6-11.2-11.8-20.5-21.6-20.6-21.8-.1-.2-11.4 3.1-25 7.3-13.7 4.1-25.6 7.5-26.4 7.5-.8 0-4.4-1.2-8-2.6l-6.6-2.6-7.7-15.4L46 377v-28.6l20.4-9.8 20.4-9.8.6-6.6c.3-3.7 1.3-20.8 2.2-38 1.5-27 1.5-31.5.3-32.6-1-.9-36.9-22.9-42.6-26.1-.3-.1 19.5-61.6 19.9-62 .2-.2 12.7 2.5 27.8 6l27.5 6.3 2.1-2.1c1.2-1.2 10.7-12.2 21.3-24.4 12.9-15 19.1-22.9 19.1-24.5 0-1.3-1.8-12.6-4-25.1l-3.9-22.9 2.8-5.6 2.9-5.7 23.5-7.3c15.7-4.8 25.1-7.2 28.4-7.2h5l12.8 18.5L245.4 88h77.4l11.8-21c6.6-11.5 12.2-21 12.6-21 .4 0 14.2 4.9 30.8 10.9z"/><path d="M267 136.7c-37.3 6-62.1 18.3-87.1 43.2-22.1 22.1-34.3 44.4-41.2 74.9-1.8 8.3-2.1 12.8-2.1 30.7s.3 22.4 2.1 30.7c6.5 28.7 18.9 52 38.7 72.5 16.3 17 30.9 26.9 51.6 35.4 19.6 7.9 35 10.9 56.7 10.9 41.3 0 75.8-14.4 105.4-43.9 22-22.1 34.3-44.5 41.2-75.1 1.8-8.1 2.1-12.7 2.1-30.5 0-17.9-.3-22.4-2.1-30.7-6.9-30.4-19.2-52.9-41.2-74.9-30-29.9-64.6-44.1-106.4-43.8-8.4.1-16.3.4-17.7.6zM223.5 257c5.1 1.2 6.7 3.4 6.3 8.9l-.3 4.5-5.5 1.2c-7.4 1.8-7.2 1.8-6.5-1.6l.7-3h-19.1c-10.4 0-19.2.4-19.5.8-.3.5-.8 3.1-1.2 5.9l-.6 5.2 22 .3c20.3.3 22.2.5 24.2 2.3 2 1.8 2.2 2.7 1.7 8-1.4 16-4.6 22.3-12.2 24.3-6.7 1.7-49 1.3-52.2-.5-2.5-1.5-3.7-5.8-2.8-10.6.6-3.1 1.1-3.6 4.3-4.2 2.1-.3 4.8-.9 6-1.2 2.2-.5 2.4-.3 2 2.8l-.3 3.4h41l1.1-5c2.2-9.3 4.2-8.5-20.4-8.5-28.1 0-28.6-.3-25.7-15.4 2.4-12.6 4.6-15.9 12-17.7 4.4-1 40.3-1 45 .1zm94.8 1.3c2.3 1.5 2.7 2.4 2.7 6.6 0 2.7-.3 6.2-.6 7.9-.6 2.8-1 3-6.2 3.7-3 .4-6.2.9-7 1.3-1.2.4-1.4-.2-.8-3.4.4-2.1.9-4.7 1.2-5.7.5-1.6-.8-1.7-17.9-1.7h-18.4l-3.2 16.2c-1.8 9-3.5 17.3-3.8 18.6l-.5 2.2 18.3-.2 18.4-.3 1.3-6c.7-3.2 1.4-6 1.5-6.1.3-.4 11.8 2.4 12.3 2.9.7.7-1.5 9.7-3.3 13.4-3 6.4-5 6.8-31.3 6.8-12.9 0-24.7-.3-26.1-.7-1.6-.5-3.1-2-3.9-3.8-1-2.5-.7-5.6 2.4-21.7 5.2-26.8 6.3-29.3 14.2-31.2 2.1-.5 13.8-.9 25.9-.8 19.3.2 22.4.4 24.8 2zm88.6-1.4c1.3.3 3.3 1.9 4.4 3.3l2 2.7-2.1 10.7c-3.2 15.5-5.3 18-16.6 19.1l-6.8.6 10.9 10.9 10.8 10.8h-19.4l-9.7-11-9.7-11.1-6.5.3-6.6.3-2.1 10.5-2.1 10.5-6.8.3c-6.7.3-6.8.2-6.3-2 .3-1.3 2.9-14 5.7-28.3 2.8-14.3 5.3-26.6 5.5-27.3.3-.9 6.5-1.2 26.7-1.1 14.5.1 27.4.4 28.7.8z"/><path d="M362.2 270.7c-.6 2.6-1.4 6.5-1.7 8.5l-.7 3.8h15.8c19.5 0 20.4-.4 22.3-8.3 1-4.5 1.1-6.1.2-7-.8-.8-6.8-1.3-18.1-1.5l-16.8-.3-1 4.8z"/></svg>